<mxfile host="app.diagrams.net" modified="2020-11-28T00:06:50.723Z" agent="5.0 (Macintosh; Intel Mac OS X 10_15_7) AppleWebKit/537.36 (KHTML, like Gecko) Chrome/86.0.4240.198 Safari/537.36" etag="eYMjN98DAD5YsMayWlER" version="13.10.2" type="github">
  <diagram id="R2lEEEUBdFMjLlhIrx00" name="Page-1">
    <mxGraphModel dx="1678" dy="867" grid="1" gridSize="10" guides="1" tooltips="1" connect="1" arrows="1" fold="1" page="1" pageScale="1" pageWidth="1100" pageHeight="850" background="none" math="0" shadow="0" extFonts="Permanent Marker^https://fonts.googleapis.com/css?family=Permanent+Marker">
      <root>
        <mxCell id="0" />
        <mxCell id="1" parent="0" />
        <mxCell id="C-vyLk0tnHw3VtMMgP7b-1" value="" style="edgeStyle=entityRelationEdgeStyle;endArrow=ERmany;startArrow=none;endFill=0;startFill=0;strokeWidth=2;labelBackgroundColor=#F1FAEE;strokeColor=#457B9D;fontColor=#1D3557;" parent="1" source="C-vyLk0tnHw3VtMMgP7b-24" target="C-vyLk0tnHw3VtMMgP7b-6" edge="1">
          <mxGeometry width="100" height="100" relative="1" as="geometry">
            <mxPoint x="430" y="780" as="sourcePoint" />
            <mxPoint x="530" y="680" as="targetPoint" />
          </mxGeometry>
        </mxCell>
        <mxCell id="C-vyLk0tnHw3VtMMgP7b-2" value="responses" style="shape=table;startSize=40;container=1;collapsible=1;childLayout=tableLayout;fixedRows=1;rowLines=0;fontStyle=1;align=center;resizeLast=1;fontSize=20;fillColor=#A8DADC;strokeColor=#457B9D;fontColor=#1D3557;" parent="1" vertex="1">
          <mxGeometry x="630" y="170" width="270" height="170" as="geometry" />
        </mxCell>
        <mxCell id="C-vyLk0tnHw3VtMMgP7b-3" value="" style="shape=partialRectangle;collapsible=0;dropTarget=0;pointerEvents=0;fillColor=none;points=[[0,0.5],[1,0.5]];portConstraint=eastwest;top=0;left=0;right=0;bottom=1;strokeColor=#457B9D;fontColor=#1D3557;" parent="C-vyLk0tnHw3VtMMgP7b-2" vertex="1">
          <mxGeometry y="40" width="270" height="30" as="geometry" />
        </mxCell>
        <mxCell id="C-vyLk0tnHw3VtMMgP7b-4" value="PK" style="shape=partialRectangle;overflow=hidden;connectable=0;fillColor=none;top=0;left=0;bottom=0;right=0;fontStyle=1;strokeColor=#457B9D;fontColor=#1D3557;" parent="C-vyLk0tnHw3VtMMgP7b-3" vertex="1">
          <mxGeometry width="30" height="30" as="geometry" />
        </mxCell>
        <mxCell id="C-vyLk0tnHw3VtMMgP7b-5" value="id SERIAL NOT NULL " style="shape=partialRectangle;overflow=hidden;connectable=0;fillColor=none;top=0;left=0;bottom=0;right=0;align=left;spacingLeft=6;fontStyle=5;fontSize=16;strokeColor=#457B9D;fontColor=#1D3557;" parent="C-vyLk0tnHw3VtMMgP7b-3" vertex="1">
          <mxGeometry x="30" width="240" height="30" as="geometry" />
        </mxCell>
        <mxCell id="C-vyLk0tnHw3VtMMgP7b-6" value="" style="shape=partialRectangle;collapsible=0;dropTarget=0;pointerEvents=0;fillColor=none;points=[[0,0.5],[1,0.5]];portConstraint=eastwest;top=0;left=0;right=0;bottom=0;strokeColor=#457B9D;fontColor=#1D3557;" parent="C-vyLk0tnHw3VtMMgP7b-2" vertex="1">
          <mxGeometry y="70" width="270" height="30" as="geometry" />
        </mxCell>
        <mxCell id="C-vyLk0tnHw3VtMMgP7b-7" value="FK" style="shape=partialRectangle;overflow=hidden;connectable=0;fillColor=none;top=0;left=0;bottom=0;right=0;strokeColor=#457B9D;fontColor=#1D3557;" parent="C-vyLk0tnHw3VtMMgP7b-6" vertex="1">
          <mxGeometry width="30" height="30" as="geometry" />
        </mxCell>
        <mxCell id="C-vyLk0tnHw3VtMMgP7b-8" value="poll_id NOT NULL" style="shape=partialRectangle;overflow=hidden;connectable=0;fillColor=none;top=0;left=0;bottom=0;right=0;align=left;spacingLeft=6;fontSize=16;strokeColor=#457B9D;fontColor=#1D3557;" parent="C-vyLk0tnHw3VtMMgP7b-6" vertex="1">
          <mxGeometry x="30" width="240" height="30" as="geometry" />
        </mxCell>
        <mxCell id="C-vyLk0tnHw3VtMMgP7b-9" value="" style="shape=partialRectangle;collapsible=0;dropTarget=0;pointerEvents=0;fillColor=none;points=[[0,0.5],[1,0.5]];portConstraint=eastwest;top=0;left=0;right=0;bottom=0;strokeColor=#457B9D;fontColor=#1D3557;" parent="C-vyLk0tnHw3VtMMgP7b-2" vertex="1">
          <mxGeometry y="100" width="270" height="30" as="geometry" />
        </mxCell>
        <mxCell id="C-vyLk0tnHw3VtMMgP7b-10" value="" style="shape=partialRectangle;overflow=hidden;connectable=0;fillColor=none;top=0;left=0;bottom=0;right=0;strokeColor=#457B9D;fontColor=#1D3557;" parent="C-vyLk0tnHw3VtMMgP7b-9" vertex="1">
          <mxGeometry width="30" height="30" as="geometry" />
        </mxCell>
        <mxCell id="C-vyLk0tnHw3VtMMgP7b-11" value="order_date date NOT NULL (?)" style="shape=partialRectangle;overflow=hidden;connectable=0;fillColor=none;top=0;left=0;bottom=0;right=0;align=left;spacingLeft=6;fontSize=16;strokeColor=#457B9D;fontColor=#1D3557;" parent="C-vyLk0tnHw3VtMMgP7b-9" vertex="1">
          <mxGeometry x="30" width="240" height="30" as="geometry" />
        </mxCell>
        <mxCell id="FZR4OLmkqivzkAO5iSQV-20" value="" style="shape=partialRectangle;collapsible=0;dropTarget=0;pointerEvents=0;fillColor=none;points=[[0,0.5],[1,0.5]];portConstraint=eastwest;top=0;left=0;right=0;bottom=0;strokeColor=#457B9D;fontColor=#1D3557;" vertex="1" parent="C-vyLk0tnHw3VtMMgP7b-2">
          <mxGeometry y="130" width="270" height="30" as="geometry" />
        </mxCell>
        <mxCell id="FZR4OLmkqivzkAO5iSQV-21" value="" style="shape=partialRectangle;overflow=hidden;connectable=0;fillColor=none;top=0;left=0;bottom=0;right=0;strokeColor=#457B9D;fontColor=#1D3557;" vertex="1" parent="FZR4OLmkqivzkAO5iSQV-20">
          <mxGeometry width="30" height="30" as="geometry" />
        </mxCell>
        <mxCell id="FZR4OLmkqivzkAO5iSQV-22" value="name" style="shape=partialRectangle;overflow=hidden;connectable=0;fillColor=none;top=0;left=0;bottom=0;right=0;align=left;spacingLeft=6;fontSize=16;strokeColor=#457B9D;fontColor=#1D3557;" vertex="1" parent="FZR4OLmkqivzkAO5iSQV-20">
          <mxGeometry x="30" width="240" height="30" as="geometry" />
        </mxCell>
        <mxCell id="C-vyLk0tnHw3VtMMgP7b-23" value="polls" style="shape=table;startSize=40;container=1;collapsible=1;childLayout=tableLayout;fixedRows=1;rowLines=0;fontStyle=1;align=center;resizeLast=1;fontSize=20;fillColor=#A8DADC;strokeColor=#457B9D;fontColor=#1D3557;" parent="1" vertex="1">
          <mxGeometry x="210" y="150" width="240" height="240" as="geometry" />
        </mxCell>
        <mxCell id="C-vyLk0tnHw3VtMMgP7b-24" value="" style="shape=partialRectangle;collapsible=0;dropTarget=0;pointerEvents=0;fillColor=none;points=[[0,0.5],[1,0.5]];portConstraint=eastwest;top=0;left=0;right=0;bottom=1;strokeColor=#457B9D;fontColor=#1D3557;" parent="C-vyLk0tnHw3VtMMgP7b-23" vertex="1">
          <mxGeometry y="40" width="240" height="40" as="geometry" />
        </mxCell>
        <mxCell id="C-vyLk0tnHw3VtMMgP7b-25" value="PK" style="shape=partialRectangle;overflow=hidden;connectable=0;fillColor=none;top=0;left=0;bottom=0;right=0;fontStyle=1;strokeColor=#457B9D;fontColor=#1D3557;" parent="C-vyLk0tnHw3VtMMgP7b-24" vertex="1">
          <mxGeometry width="20" height="40" as="geometry" />
        </mxCell>
        <mxCell id="C-vyLk0tnHw3VtMMgP7b-26" value="id SERIAL NOT NULL " style="shape=partialRectangle;overflow=hidden;connectable=0;fillColor=none;top=0;left=0;bottom=0;right=0;align=left;spacingLeft=6;fontStyle=5;fontSize=16;strokeColor=#457B9D;fontColor=#1D3557;" parent="C-vyLk0tnHw3VtMMgP7b-24" vertex="1">
          <mxGeometry x="20" width="220" height="40" as="geometry" />
        </mxCell>
        <mxCell id="FZR4OLmkqivzkAO5iSQV-1" value="" style="shape=partialRectangle;collapsible=0;dropTarget=0;pointerEvents=0;fillColor=none;points=[[0,0.5],[1,0.5]];portConstraint=eastwest;top=0;left=0;right=0;bottom=0;strokeColor=#457B9D;fontColor=#1D3557;" vertex="1" parent="C-vyLk0tnHw3VtMMgP7b-23">
          <mxGeometry y="80" width="240" height="30" as="geometry" />
        </mxCell>
        <mxCell id="FZR4OLmkqivzkAO5iSQV-2" value="" style="shape=partialRectangle;overflow=hidden;connectable=0;fillColor=none;top=0;left=0;bottom=0;right=0;strokeColor=#457B9D;fontColor=#1D3557;" vertex="1" parent="FZR4OLmkqivzkAO5iSQV-1">
          <mxGeometry width="20" height="30" as="geometry" />
        </mxCell>
        <mxCell id="FZR4OLmkqivzkAO5iSQV-3" value="email" style="shape=partialRectangle;overflow=hidden;connectable=0;fillColor=none;top=0;left=0;bottom=0;right=0;align=left;spacingLeft=6;verticalAlign=middle;fontSize=16;strokeColor=#457B9D;fontColor=#1D3557;" vertex="1" parent="FZR4OLmkqivzkAO5iSQV-1">
          <mxGeometry x="20" width="220" height="30" as="geometry" />
        </mxCell>
        <mxCell id="FZR4OLmkqivzkAO5iSQV-5" value="" style="shape=partialRectangle;collapsible=0;dropTarget=0;pointerEvents=0;fillColor=none;points=[[0,0.5],[1,0.5]];portConstraint=eastwest;top=0;left=0;right=0;bottom=0;strokeColor=#457B9D;fontColor=#1D3557;" vertex="1" parent="C-vyLk0tnHw3VtMMgP7b-23">
          <mxGeometry y="110" width="240" height="30" as="geometry" />
        </mxCell>
        <mxCell id="FZR4OLmkqivzkAO5iSQV-6" value="" style="shape=partialRectangle;overflow=hidden;connectable=0;fillColor=none;top=0;left=0;bottom=0;right=0;strokeColor=#457B9D;fontColor=#1D3557;" vertex="1" parent="FZR4OLmkqivzkAO5iSQV-5">
          <mxGeometry width="20" height="30" as="geometry" />
        </mxCell>
        <mxCell id="FZR4OLmkqivzkAO5iSQV-7" value="creator_url" style="shape=partialRectangle;overflow=hidden;connectable=0;fillColor=none;top=0;left=0;bottom=0;right=0;align=left;spacingLeft=6;verticalAlign=middle;fontSize=16;strokeColor=#457B9D;fontColor=#1D3557;" vertex="1" parent="FZR4OLmkqivzkAO5iSQV-5">
          <mxGeometry x="20" width="220" height="30" as="geometry" />
        </mxCell>
        <mxCell id="FZR4OLmkqivzkAO5iSQV-8" value="" style="shape=partialRectangle;collapsible=0;dropTarget=0;pointerEvents=0;fillColor=none;points=[[0,0.5],[1,0.5]];portConstraint=eastwest;top=0;left=0;right=0;bottom=0;strokeColor=#457B9D;fontColor=#1D3557;" vertex="1" parent="C-vyLk0tnHw3VtMMgP7b-23">
          <mxGeometry y="140" width="240" height="20" as="geometry" />
        </mxCell>
        <mxCell id="FZR4OLmkqivzkAO5iSQV-9" value="" style="shape=partialRectangle;overflow=hidden;connectable=0;fillColor=none;top=0;left=0;bottom=0;right=0;strokeColor=#457B9D;fontColor=#1D3557;" vertex="1" parent="FZR4OLmkqivzkAO5iSQV-8">
          <mxGeometry width="20" height="20" as="geometry" />
        </mxCell>
        <mxCell id="FZR4OLmkqivzkAO5iSQV-10" value="respondent_url" style="shape=partialRectangle;overflow=hidden;connectable=0;fillColor=none;top=0;left=0;bottom=0;right=0;align=left;spacingLeft=6;verticalAlign=middle;fontSize=16;strokeColor=#457B9D;fontColor=#1D3557;" vertex="1" parent="FZR4OLmkqivzkAO5iSQV-8">
          <mxGeometry x="20" width="220" height="20" as="geometry" />
        </mxCell>
        <mxCell id="FZR4OLmkqivzkAO5iSQV-11" value="" style="shape=partialRectangle;collapsible=0;dropTarget=0;pointerEvents=0;fillColor=none;points=[[0,0.5],[1,0.5]];portConstraint=eastwest;top=0;left=0;right=0;bottom=0;strokeColor=#457B9D;fontColor=#1D3557;" vertex="1" parent="C-vyLk0tnHw3VtMMgP7b-23">
          <mxGeometry y="160" width="240" height="30" as="geometry" />
        </mxCell>
        <mxCell id="FZR4OLmkqivzkAO5iSQV-12" value="" style="shape=partialRectangle;overflow=hidden;connectable=0;fillColor=none;top=0;left=0;bottom=0;right=0;strokeColor=#457B9D;fontColor=#1D3557;" vertex="1" parent="FZR4OLmkqivzkAO5iSQV-11">
          <mxGeometry width="20" height="30" as="geometry" />
        </mxCell>
        <mxCell id="FZR4OLmkqivzkAO5iSQV-13" value="poll_text" style="shape=partialRectangle;overflow=hidden;connectable=0;fillColor=none;top=0;left=0;bottom=0;right=0;align=left;spacingLeft=6;verticalAlign=middle;fontSize=16;strokeColor=#457B9D;fontColor=#1D3557;" vertex="1" parent="FZR4OLmkqivzkAO5iSQV-11">
          <mxGeometry x="20" width="220" height="30" as="geometry" />
        </mxCell>
        <mxCell id="FZR4OLmkqivzkAO5iSQV-14" value="" style="shape=partialRectangle;collapsible=0;dropTarget=0;pointerEvents=0;fillColor=none;points=[[0,0.5],[1,0.5]];portConstraint=eastwest;top=0;left=0;right=0;bottom=0;strokeColor=#457B9D;fontColor=#1D3557;" vertex="1" parent="C-vyLk0tnHw3VtMMgP7b-23">
          <mxGeometry y="190" width="240" height="30" as="geometry" />
        </mxCell>
        <mxCell id="FZR4OLmkqivzkAO5iSQV-15" value="" style="shape=partialRectangle;overflow=hidden;connectable=0;fillColor=none;top=0;left=0;bottom=0;right=0;strokeColor=#457B9D;fontColor=#1D3557;" vertex="1" parent="FZR4OLmkqivzkAO5iSQV-14">
          <mxGeometry width="20" height="30" as="geometry" />
        </mxCell>
        <mxCell id="FZR4OLmkqivzkAO5iSQV-16" value="creator_name ?" style="shape=partialRectangle;overflow=hidden;connectable=0;fillColor=none;top=0;left=0;bottom=0;right=0;align=left;spacingLeft=6;verticalAlign=middle;fontSize=16;strokeColor=#457B9D;fontColor=#1D3557;" vertex="1" parent="FZR4OLmkqivzkAO5iSQV-14">
          <mxGeometry x="20" width="220" height="30" as="geometry" />
        </mxCell>
        <mxCell id="FZR4OLmkqivzkAO5iSQV-17" value="" style="shape=partialRectangle;collapsible=0;dropTarget=0;pointerEvents=0;fillColor=none;points=[[0,0.5],[1,0.5]];portConstraint=eastwest;top=0;left=0;right=0;bottom=0;strokeColor=#457B9D;fontColor=#1D3557;" vertex="1" parent="C-vyLk0tnHw3VtMMgP7b-23">
          <mxGeometry y="220" width="240" height="20" as="geometry" />
        </mxCell>
        <mxCell id="FZR4OLmkqivzkAO5iSQV-18" value="" style="shape=partialRectangle;overflow=hidden;connectable=0;fillColor=none;top=0;left=0;bottom=0;right=0;strokeColor=#457B9D;fontColor=#1D3557;" vertex="1" parent="FZR4OLmkqivzkAO5iSQV-17">
          <mxGeometry width="20" height="20" as="geometry" />
        </mxCell>
        <mxCell id="FZR4OLmkqivzkAO5iSQV-19" value="" style="shape=partialRectangle;overflow=hidden;connectable=0;fillColor=none;top=0;left=0;bottom=0;right=0;align=left;spacingLeft=6;verticalAlign=middle;fontSize=16;strokeColor=#457B9D;fontColor=#1D3557;" vertex="1" parent="FZR4OLmkqivzkAO5iSQV-17">
          <mxGeometry x="20" width="220" height="20" as="geometry" />
        </mxCell>
        <mxCell id="FZR4OLmkqivzkAO5iSQV-23" value="options" style="shape=table;startSize=40;container=1;collapsible=1;childLayout=tableLayout;fixedRows=1;rowLines=0;fontStyle=1;align=center;resizeLast=1;fontSize=20;fillColor=#A8DADC;strokeColor=#457B9D;fontColor=#1D3557;" vertex="1" parent="1">
          <mxGeometry x="210" y="540" width="240" height="170" as="geometry" />
        </mxCell>
        <mxCell id="FZR4OLmkqivzkAO5iSQV-24" value="" style="shape=partialRectangle;collapsible=0;dropTarget=0;pointerEvents=0;fillColor=none;points=[[0,0.5],[1,0.5]];portConstraint=eastwest;top=0;left=0;right=0;bottom=1;strokeColor=#457B9D;fontColor=#1D3557;" vertex="1" parent="FZR4OLmkqivzkAO5iSQV-23">
          <mxGeometry y="40" width="240" height="30" as="geometry" />
        </mxCell>
        <mxCell id="FZR4OLmkqivzkAO5iSQV-25" value="PK" style="shape=partialRectangle;overflow=hidden;connectable=0;fillColor=none;top=0;left=0;bottom=0;right=0;fontStyle=1;fontSize=12;strokeColor=#457B9D;fontColor=#1D3557;" vertex="1" parent="FZR4OLmkqivzkAO5iSQV-24">
          <mxGeometry width="30" height="30" as="geometry" />
        </mxCell>
        <mxCell id="FZR4OLmkqivzkAO5iSQV-26" value="id SERIAL NOT NULL " style="shape=partialRectangle;overflow=hidden;connectable=0;fillColor=none;top=0;left=0;bottom=0;right=0;align=left;spacingLeft=6;fontStyle=5;fontSize=16;strokeColor=#457B9D;fontColor=#1D3557;" vertex="1" parent="FZR4OLmkqivzkAO5iSQV-24">
          <mxGeometry x="30" width="210" height="30" as="geometry" />
        </mxCell>
        <mxCell id="FZR4OLmkqivzkAO5iSQV-27" value="" style="shape=partialRectangle;collapsible=0;dropTarget=0;pointerEvents=0;fillColor=none;points=[[0,0.5],[1,0.5]];portConstraint=eastwest;top=0;left=0;right=0;bottom=0;strokeColor=#457B9D;fontColor=#1D3557;" vertex="1" parent="FZR4OLmkqivzkAO5iSQV-23">
          <mxGeometry y="70" width="240" height="30" as="geometry" />
        </mxCell>
        <mxCell id="FZR4OLmkqivzkAO5iSQV-28" value="FK" style="shape=partialRectangle;overflow=hidden;connectable=0;fillColor=none;top=0;left=0;bottom=0;right=0;fontSize=12;strokeColor=#457B9D;fontColor=#1D3557;" vertex="1" parent="FZR4OLmkqivzkAO5iSQV-27">
          <mxGeometry width="30" height="30" as="geometry" />
        </mxCell>
        <mxCell id="FZR4OLmkqivzkAO5iSQV-29" value="poll_id NOT NULL" style="shape=partialRectangle;overflow=hidden;connectable=0;fillColor=none;top=0;left=0;bottom=0;right=0;align=left;spacingLeft=6;fontSize=16;strokeColor=#457B9D;fontColor=#1D3557;" vertex="1" parent="FZR4OLmkqivzkAO5iSQV-27">
          <mxGeometry x="30" width="210" height="30" as="geometry" />
        </mxCell>
        <mxCell id="FZR4OLmkqivzkAO5iSQV-30" value="" style="shape=partialRectangle;collapsible=0;dropTarget=0;pointerEvents=0;fillColor=none;points=[[0,0.5],[1,0.5]];portConstraint=eastwest;top=0;left=0;right=0;bottom=0;strokeColor=#457B9D;fontColor=#1D3557;" vertex="1" parent="FZR4OLmkqivzkAO5iSQV-23">
          <mxGeometry y="100" width="240" height="30" as="geometry" />
        </mxCell>
        <mxCell id="FZR4OLmkqivzkAO5iSQV-31" value="" style="shape=partialRectangle;overflow=hidden;connectable=0;fillColor=none;top=0;left=0;bottom=0;right=0;strokeColor=#457B9D;fontColor=#1D3557;" vertex="1" parent="FZR4OLmkqivzkAO5iSQV-30">
          <mxGeometry width="30" height="30" as="geometry" />
        </mxCell>
        <mxCell id="FZR4OLmkqivzkAO5iSQV-32" value="title" style="shape=partialRectangle;overflow=hidden;connectable=0;fillColor=none;top=0;left=0;bottom=0;right=0;align=left;spacingLeft=6;fontSize=16;strokeColor=#457B9D;fontColor=#1D3557;" vertex="1" parent="FZR4OLmkqivzkAO5iSQV-30">
          <mxGeometry x="30" width="210" height="30" as="geometry" />
        </mxCell>
        <mxCell id="FZR4OLmkqivzkAO5iSQV-33" value="" style="shape=partialRectangle;collapsible=0;dropTarget=0;pointerEvents=0;fillColor=none;points=[[0,0.5],[1,0.5]];portConstraint=eastwest;top=0;left=0;right=0;bottom=0;strokeColor=#457B9D;fontColor=#1D3557;" vertex="1" parent="FZR4OLmkqivzkAO5iSQV-23">
          <mxGeometry y="130" width="240" height="30" as="geometry" />
        </mxCell>
        <mxCell id="FZR4OLmkqivzkAO5iSQV-34" value="" style="shape=partialRectangle;overflow=hidden;connectable=0;fillColor=none;top=0;left=0;bottom=0;right=0;strokeColor=#457B9D;fontColor=#1D3557;" vertex="1" parent="FZR4OLmkqivzkAO5iSQV-33">
          <mxGeometry width="30" height="30" as="geometry" />
        </mxCell>
        <mxCell id="FZR4OLmkqivzkAO5iSQV-35" value="description" style="shape=partialRectangle;overflow=hidden;connectable=0;fillColor=none;top=0;left=0;bottom=0;right=0;align=left;spacingLeft=6;fontSize=16;strokeColor=#457B9D;fontColor=#1D3557;" vertex="1" parent="FZR4OLmkqivzkAO5iSQV-33">
          <mxGeometry x="30" width="210" height="30" as="geometry" />
        </mxCell>
        <mxCell id="FZR4OLmkqivzkAO5iSQV-42" style="edgeStyle=orthogonalEdgeStyle;rounded=1;orthogonalLoop=1;jettySize=auto;html=1;exitX=0;exitY=0.5;exitDx=0;exitDy=0;entryX=0;entryY=0.5;entryDx=0;entryDy=0;startArrow=none;startFill=0;endArrow=ERmany;endFill=0;fontColor=#1D3557;fontSize=12;strokeWidth=2;labelBackgroundColor=#F1FAEE;strokeColor=#457B9D;" edge="1" parent="1" source="C-vyLk0tnHw3VtMMgP7b-24" target="FZR4OLmkqivzkAO5iSQV-27">
          <mxGeometry relative="1" as="geometry">
            <Array as="points">
              <mxPoint x="160" y="210" />
              <mxPoint x="160" y="625" />
            </Array>
          </mxGeometry>
        </mxCell>
        <mxCell id="FZR4OLmkqivzkAO5iSQV-43" value="response_options" style="shape=table;startSize=40;container=1;collapsible=1;childLayout=tableLayout;fixedRows=1;rowLines=0;fontStyle=1;align=center;resizeLast=1;fontSize=20;fillColor=#A8DADC;strokeColor=#457B9D;fontColor=#1D3557;" vertex="1" parent="1">
          <mxGeometry x="630" y="460" width="270" height="170" as="geometry" />
        </mxCell>
        <mxCell id="FZR4OLmkqivzkAO5iSQV-44" value="" style="shape=partialRectangle;collapsible=0;dropTarget=0;pointerEvents=0;fillColor=none;points=[[0,0.5],[1,0.5]];portConstraint=eastwest;top=0;left=0;right=0;bottom=1;strokeColor=#457B9D;fontColor=#1D3557;" vertex="1" parent="FZR4OLmkqivzkAO5iSQV-43">
          <mxGeometry y="40" width="270" height="30" as="geometry" />
        </mxCell>
        <mxCell id="FZR4OLmkqivzkAO5iSQV-45" value="PK" style="shape=partialRectangle;overflow=hidden;connectable=0;fillColor=none;top=0;left=0;bottom=0;right=0;fontStyle=1;strokeColor=#457B9D;fontColor=#1D3557;" vertex="1" parent="FZR4OLmkqivzkAO5iSQV-44">
          <mxGeometry width="30" height="30" as="geometry" />
        </mxCell>
        <mxCell id="FZR4OLmkqivzkAO5iSQV-46" value="id SERIAL NOT NULL " style="shape=partialRectangle;overflow=hidden;connectable=0;fillColor=none;top=0;left=0;bottom=0;right=0;align=left;spacingLeft=6;fontStyle=5;fontSize=16;strokeColor=#457B9D;fontColor=#1D3557;" vertex="1" parent="FZR4OLmkqivzkAO5iSQV-44">
          <mxGeometry x="30" width="240" height="30" as="geometry" />
        </mxCell>
        <mxCell id="FZR4OLmkqivzkAO5iSQV-47" value="" style="shape=partialRectangle;collapsible=0;dropTarget=0;pointerEvents=0;fillColor=none;points=[[0,0.5],[1,0.5]];portConstraint=eastwest;top=0;left=0;right=0;bottom=0;strokeColor=#457B9D;fontColor=#1D3557;" vertex="1" parent="FZR4OLmkqivzkAO5iSQV-43">
          <mxGeometry y="70" width="270" height="30" as="geometry" />
        </mxCell>
        <mxCell id="FZR4OLmkqivzkAO5iSQV-48" value="FK1" style="shape=partialRectangle;overflow=hidden;connectable=0;fillColor=none;top=0;left=0;bottom=0;right=0;strokeColor=#457B9D;fontColor=#1D3557;" vertex="1" parent="FZR4OLmkqivzkAO5iSQV-47">
          <mxGeometry width="30" height="30" as="geometry" />
        </mxCell>
        <mxCell id="FZR4OLmkqivzkAO5iSQV-49" value="response_id NOT NULL" style="shape=partialRectangle;overflow=hidden;connectable=0;fillColor=none;top=0;left=0;bottom=0;right=0;align=left;spacingLeft=6;fontSize=16;strokeColor=#457B9D;fontColor=#1D3557;" vertex="1" parent="FZR4OLmkqivzkAO5iSQV-47">
          <mxGeometry x="30" width="240" height="30" as="geometry" />
        </mxCell>
        <mxCell id="FZR4OLmkqivzkAO5iSQV-50" value="" style="shape=partialRectangle;collapsible=0;dropTarget=0;pointerEvents=0;fillColor=none;points=[[0,0.5],[1,0.5]];portConstraint=eastwest;top=0;left=0;right=0;bottom=0;strokeColor=#457B9D;fontColor=#1D3557;" vertex="1" parent="FZR4OLmkqivzkAO5iSQV-43">
          <mxGeometry y="100" width="270" height="30" as="geometry" />
        </mxCell>
        <mxCell id="FZR4OLmkqivzkAO5iSQV-51" value="FK2" style="shape=partialRectangle;overflow=hidden;connectable=0;fillColor=none;top=0;left=0;bottom=0;right=0;strokeColor=#457B9D;fontColor=#1D3557;" vertex="1" parent="FZR4OLmkqivzkAO5iSQV-50">
          <mxGeometry width="30" height="30" as="geometry" />
        </mxCell>
        <mxCell id="FZR4OLmkqivzkAO5iSQV-52" value="options_id" style="shape=partialRectangle;overflow=hidden;connectable=0;fillColor=none;top=0;left=0;bottom=0;right=0;align=left;spacingLeft=6;fontSize=16;strokeColor=#457B9D;fontColor=#1D3557;" vertex="1" parent="FZR4OLmkqivzkAO5iSQV-50">
          <mxGeometry x="30" width="240" height="30" as="geometry" />
        </mxCell>
        <mxCell id="FZR4OLmkqivzkAO5iSQV-53" value="" style="shape=partialRectangle;collapsible=0;dropTarget=0;pointerEvents=0;fillColor=none;points=[[0,0.5],[1,0.5]];portConstraint=eastwest;top=0;left=0;right=0;bottom=0;strokeColor=#457B9D;fontColor=#1D3557;" vertex="1" parent="FZR4OLmkqivzkAO5iSQV-43">
          <mxGeometry y="130" width="270" height="30" as="geometry" />
        </mxCell>
        <mxCell id="FZR4OLmkqivzkAO5iSQV-54" value="" style="shape=partialRectangle;overflow=hidden;connectable=0;fillColor=none;top=0;left=0;bottom=0;right=0;strokeColor=#457B9D;fontColor=#1D3557;" vertex="1" parent="FZR4OLmkqivzkAO5iSQV-53">
          <mxGeometry width="30" height="30" as="geometry" />
        </mxCell>
        <mxCell id="FZR4OLmkqivzkAO5iSQV-55" value="rank" style="shape=partialRectangle;overflow=hidden;connectable=0;fillColor=none;top=0;left=0;bottom=0;right=0;align=left;spacingLeft=6;fontSize=16;strokeColor=#457B9D;fontColor=#1D3557;" vertex="1" parent="FZR4OLmkqivzkAO5iSQV-53">
          <mxGeometry x="30" width="240" height="30" as="geometry" />
        </mxCell>
        <mxCell id="FZR4OLmkqivzkAO5iSQV-57" value="" style="edgeStyle=entityRelationEdgeStyle;fontSize=12;html=1;endArrow=ERmany;strokeColor=#457B9D;fillColor=#A8DADC;entryX=0;entryY=0.5;entryDx=0;entryDy=0;strokeWidth=2;" edge="1" parent="1" target="FZR4OLmkqivzkAO5iSQV-50">
          <mxGeometry width="100" height="100" relative="1" as="geometry">
            <mxPoint x="450" y="595" as="sourcePoint" />
            <mxPoint x="550" y="495" as="targetPoint" />
          </mxGeometry>
        </mxCell>
        <mxCell id="FZR4OLmkqivzkAO5iSQV-58" style="edgeStyle=orthogonalEdgeStyle;curved=0;rounded=1;sketch=0;orthogonalLoop=1;jettySize=auto;html=1;exitX=1;exitY=0.5;exitDx=0;exitDy=0;entryX=1;entryY=0.5;entryDx=0;entryDy=0;strokeColor=#457B9D;strokeWidth=2;fillColor=#A8DADC;fontColor=#1D3557;endArrow=ERmany;endFill=0;" edge="1" parent="1" source="C-vyLk0tnHw3VtMMgP7b-3" target="FZR4OLmkqivzkAO5iSQV-47">
          <mxGeometry relative="1" as="geometry">
            <Array as="points">
              <mxPoint x="950" y="225" />
              <mxPoint x="950" y="545" />
            </Array>
          </mxGeometry>
        </mxCell>
      </root>
    </mxGraphModel>
  </diagram>
</mxfile>
